<svg width="193" height="253" viewBox="0 0 193 253" fill="none" xmlns="http://www.w3.org/2000/svg">
<path d="M151.633 239.754L114.435 230.482C111.114 229.488 108.457 226.508 108.457 222.865V204.983V156.966V111.929C108.457 109.942 109.121 108.287 110.449 106.962L190.824 14.5707C193.149 11.9215 193.813 7.94765 191.82 4.30498C190.159 1.65576 187.17 0 183.849 0C161.265 0 31.7355 0 9.15096 0C5.82971 0 2.84057 1.65576 1.17994 4.30498C-0.81281 7.6165 -0.148555 11.9215 2.17632 14.5707L82.5507 106.962C83.8792 108.287 84.5435 110.274 84.5435 111.929V156.966V204.983V222.865C84.5435 226.508 82.2186 229.488 78.5652 230.482L41.3672 239.754C38.378 240.416 36.3853 243.065 36.3853 246.377C36.3853 250.02 39.3744 253 43.0278 253H84.5435H108.789H150.304C153.958 253 156.947 250.02 156.947 246.377C156.615 243.397 154.622 240.747 151.633 239.754Z" fill="white"/>
</svg>
