<svg width="372" height="488" viewBox="0 0 372 488" fill="none" xmlns="http://www.w3.org/2000/svg">
<path d="M292.148 461.568L220.479 443.718C214.08 441.805 208.961 436.068 208.961 429.055V394.628V302.187V215.484C208.961 211.658 210.241 208.471 212.8 205.921L367.656 28.0511C372.135 22.9509 373.415 15.3006 369.575 8.28784C366.376 3.18764 360.617 0 354.218 0C310.705 0 61.1441 0 17.631 0C11.232 0 5.47287 3.18764 2.27337 8.28784C-1.56602 14.6631 -0.286218 22.9509 4.19308 28.0511L159.049 205.921C161.608 208.471 162.888 212.296 162.888 215.484V302.187V394.628V429.055C162.888 436.068 158.409 441.805 151.37 443.718L79.7012 461.568C73.9421 462.844 70.1027 467.944 70.1027 474.319C70.1027 481.332 75.8618 487.07 82.9007 487.07H162.888H209.601H289.588C296.627 487.07 302.386 481.332 302.386 474.319C301.746 468.581 297.907 463.481 292.148 461.568Z" fill="black"/>
</svg>
